<svg width="24" height="21" viewBox="0 0 24 21" fill="none" xmlns="http://www.w3.org/2000/svg">
<path opacity="0.1" d="M1.704 20.0321C0.936002 16.6401 0.552002 13.6961 0.552002 11.2001C0.552002 7.61605 1.384 4.92805 3.048 3.13605C4.712 1.28005 7.144 0.352051 10.344 0.352051V4.19205C8.68 4.19205 7.464 4.64005 6.696 5.53605C5.992 6.43205 5.64 7.77605 5.64 9.56805V11.7761H10.44V20.0321H1.704ZM14.664 20.0321C13.896 16.6401 13.512 13.6961 13.512 11.2001C13.512 7.61605 14.344 4.92805 16.008 3.13605C17.672 1.28005 20.104 0.352051 23.304 0.352051V4.19205C21.64 4.19205 20.424 4.64005 19.656 5.53605C18.952 6.43205 18.6 7.77605 18.6 9.56805V11.7761H23.4V20.0321H14.664Z" fill="black"/>
</svg>
