<svg width="26" height="26" viewBox="0 0 26 26" fill="none" xmlns="http://www.w3.org/2000/svg">
<path fill-rule="evenodd" clip-rule="evenodd" d="M0 2.94591C0 1.31894 1.224 0 2.73402 0H17.1993C18.7093 0 19.9333 1.31894 19.9333 2.94591V12.8165C19.933 12.8168 19.9328 12.8171 19.9324 12.8174C17.8203 15.0873 13.4293 19.8081 12.7623 20.5321C11.9285 21.4371 11.7384 22.7715 11.72 23.0424C11.7095 23.1965 11.6547 23.7468 11.601 24.2856C11.5603 24.6933 11.5203 25.0945 11.5008 25.3124C11.4746 25.6039 11.4937 25.8196 11.5407 26H2.73402C1.224 26 0 24.6811 0 23.0541V2.94591ZM3.14707 5.87088C3.14707 5.22008 3.6367 4.6925 4.24069 4.6925H15.6921C16.2961 4.6925 16.7857 5.22008 16.7857 5.87088C16.7857 6.52161 16.2961 7.04918 15.6921 7.04918H4.24069C3.6367 7.04918 3.14707 6.52161 3.14707 5.87088ZM4.24069 9.46721C3.6367 9.46721 3.14707 9.99478 3.14707 10.6456C3.14707 11.2964 3.6367 11.824 4.24069 11.824H15.6921C16.2961 11.824 16.7857 11.2964 16.7857 10.6456C16.7857 9.99478 16.2961 9.46721 15.6921 9.46721H4.24069ZM3.14707 15.4203C3.14707 14.7696 3.6367 14.242 4.24069 14.242H9.95183C10.5558 14.242 11.0454 14.7696 11.0454 15.4203C11.0454 16.0711 10.5558 16.5987 9.95183 16.5987H4.24069C3.6367 16.5987 3.14707 16.0711 3.14707 15.4203Z" fill="#FF385C"/>
<path d="M25.5469 12.654C24.9428 11.8772 23.9634 11.8772 23.3593 12.654L21.6667 14.8302L23.8543 17.6428L25.5469 15.4666C26.151 14.69 26.151 13.4306 25.5469 12.654Z" fill="#FF385C"/>
<path d="M22.5333 18.5045L19.9785 15.7858L14.1531 21.9851C13.8122 22.3478 13.5705 22.8025 13.4542 23.3005L13.0194 25.161C12.9018 25.6642 13.3389 26.1149 13.8078 25.9738L15.5193 25.459C15.957 25.3274 16.3557 25.0785 16.6773 24.7362L22.5333 18.5045Z" fill="#FF385C"/>
</svg>
