<svg width="20" height="20" viewBox="0 0 20 20" fill="none" xmlns="http://www.w3.org/2000/svg">
<path d="M4.9353 7.316C4.80344 7.177 4.69883 7.01194 4.62746 6.83025C4.55609 6.64856 4.51936 6.45381 4.51936 6.25713C4.51936 6.06044 4.55609 5.86569 4.62746 5.684C4.69883 5.50231 4.80344 5.33725 4.9353 5.19825L9.44868 0.438947C9.64681 0.229625 9.89928 0.086971 10.1742 0.0290059C10.4491 -0.0289592 10.7341 0.000365769 10.9933 0.113276C11.2524 0.226186 11.474 0.417616 11.6301 0.66338C11.7862 0.909145 11.8698 1.19822 11.8702 1.49408C11.8699 1.64227 11.8496 1.78966 11.81 1.93184C11.81 1.96926 11.7851 2.00667 11.771 2.04783C11.6993 2.23279 11.5932 2.40073 11.459 2.54172L6.94203 7.316C6.81032 7.45515 6.65391 7.56554 6.48174 7.64086C6.30958 7.71617 6.12503 7.75494 5.93866 7.75494C5.75229 7.75494 5.56775 7.71617 5.39558 7.64086C5.22342 7.56554 5.06701 7.45515 4.9353 7.316ZM9.54795 10.3841L1.20901 19.1731C1.10985 19.2771 0.983768 19.3479 0.84661 19.3765C0.709451 19.4051 0.567338 19.3903 0.438134 19.3339C0.308931 19.2776 0.198404 19.1821 0.120448 19.0596C0.0424923 18.9372 0.000587011 18.7931 0 18.6455C0.00638266 18.4497 0.0853087 18.2643 0.219819 18.1292L8.55522 9.32149C8.93925 9.61567 9.27466 9.9747 9.54795 10.3841ZM10.9555 11.5477L10.9059 11.6039C10.6567 10.7275 10.2057 9.92981 9.59322 9.28214C8.98074 8.63448 8.22582 8.15695 7.39585 7.8922L7.44549 7.84356L11.9553 3.08425C11.9908 3.04684 12.0262 3.00568 12.0581 2.96452C12.2969 3.8488 12.7456 4.65413 13.3617 5.3043C13.9777 5.95447 14.7409 6.42795 15.5788 6.67992L15.4653 6.78843L10.9555 11.5477ZM18.3904 8.37487C18.39 8.57173 18.3529 8.76659 18.2811 8.94829C18.2093 9.12998 18.1043 9.29495 17.972 9.43374L13.4622 14.1968C13.3304 14.3359 13.174 14.4463 13.0019 14.5216C12.8297 14.597 12.6452 14.6357 12.4588 14.6357C12.2724 14.6357 12.0879 14.597 11.9157 14.5216C11.7435 14.4463 11.5871 14.3359 11.4554 14.1968C11.3238 14.0577 11.2194 13.8926 11.1482 13.7109C11.077 13.5292 11.0404 13.3345 11.0406 13.1379C11.0406 12.979 11.0645 12.8212 11.1115 12.6702C11.1194 12.641 11.1288 12.6122 11.1399 12.5842C11.2089 12.3935 11.3166 12.2211 11.4554 12.079L15.9688 7.316C16.1068 7.17113 16.2723 7.05889 16.4545 6.98674C16.4853 6.97218 16.5174 6.9609 16.5503 6.95306C16.6899 6.9049 16.8359 6.88089 16.9828 6.88197C17.3589 6.88197 17.7197 7.03965 17.9856 7.32033C18.2516 7.601 18.401 7.98168 18.401 8.37861L18.3904 8.37487ZM18.9364 17.755H10.4272C10.1451 17.755 9.87459 17.8733 9.67512 18.0838C9.47565 18.2943 9.36359 18.5798 9.36359 18.8775C9.36359 19.1752 9.47565 19.4607 9.67512 19.6712C9.87459 19.8817 10.1451 20 10.4272 20H18.9364C19.2185 20 19.489 19.8817 19.6885 19.6712C19.8879 19.4607 20 19.1752 20 18.8775C20 18.5798 19.8879 18.2943 19.6885 18.0838C19.489 17.8733 19.2185 17.755 18.9364 17.755Z" fill="#1AA260"/>
</svg>
