<svg width="20" height="20" viewBox="0 0 20 20" fill="none" xmlns="http://www.w3.org/2000/svg">
<path fill-rule="evenodd" clip-rule="evenodd" d="M0 2.26608C0 1.01457 0.941537 0 2.10309 0H13.2302C14.3917 0 15.3333 1.01457 15.3333 2.26608V9.85882C15.3331 9.85905 15.3329 9.85929 15.3326 9.85952C13.7079 11.6056 10.3302 15.237 9.81714 15.7939C9.17576 16.4901 9.02954 17.5166 9.01542 17.7249C9.00731 17.8435 8.96516 18.2668 8.92383 18.6812C8.89257 18.9949 8.8618 19.3034 8.84675 19.4711C8.8266 19.6953 8.84127 19.8612 8.87746 20H2.10309C0.941537 20 0 18.9854 0 17.7339V2.26608ZM2.42082 4.51606C2.42082 4.01544 2.79746 3.60962 3.26207 3.60962H12.0708C12.5354 3.60962 12.9121 4.01544 12.9121 4.51606C12.9121 5.01662 12.5354 5.42245 12.0708 5.42245H3.26207C2.79746 5.42245 2.42082 5.01662 2.42082 4.51606ZM3.26207 7.28247C2.79746 7.28247 2.42082 7.68829 2.42082 8.18891C2.42082 8.68953 2.79746 9.09536 3.26207 9.09536H12.0708C12.5354 9.09536 12.9121 8.68953 12.9121 8.18891C12.9121 7.68829 12.5354 7.28247 12.0708 7.28247H3.26207ZM2.42082 11.8618C2.42082 11.3612 2.79746 10.9554 3.26207 10.9554H7.65525C8.11986 10.9554 8.4965 11.3612 8.4965 11.8618C8.4965 12.3624 8.11986 12.7682 7.65525 12.7682H3.26207C2.79746 12.7682 2.42082 12.3624 2.42082 11.8618Z" fill="white"/>
<path d="M19.6515 9.73383C19.1868 9.13633 18.4334 9.13633 17.9687 9.73383L16.6667 11.4078L18.3495 13.5714L19.6515 11.8974C20.1162 11.3 20.1162 10.3313 19.6515 9.73383Z" fill="white"/>
<path d="M17.3333 14.2342L15.3681 12.1429L10.887 16.9116C10.6247 17.1906 10.4389 17.5404 10.3494 17.9234L10.0149 19.3546C9.92443 19.7417 10.2607 20.0884 10.6214 19.9799L11.9379 19.5838C12.2746 19.4826 12.5813 19.2911 12.8287 19.0279L17.3333 14.2342Z" fill="white"/>
</svg>
